HIERARCHY
ROOT Hips
{
 OFFSET 0.000000 0.000000 0.000000
 CHANNELS 6 Xposition Yposition Zposition Yrotation Xrotation Zrotation
 JOINT Chest
 {
  OFFSET 0.000000 12.778769 -0.025672
  CHANNELS 3 Yrotation Xrotation Zrotation
  JOINT Chest2
  {
   OFFSET 0.000000 9.048585 0.046633
   CHANNELS 3 Yrotation Xrotation Zrotation
   JOINT Chest3
   {
    OFFSET 0.000000 8.173956 0.000000
    CHANNELS 3 Yrotation Xrotation Zrotation
    JOINT Chest4
    {
     OFFSET 0.000000 8.173956 0.000000
     CHANNELS 3 Yrotation Xrotation Zrotation
     JOINT Neck
     {
      OFFSET 0.000000 11.254521 0.000000
      CHANNELS 3 Yrotation Xrotation Zrotation
      JOINT Head
      {
       OFFSET 0.000000 7.627541 0.110895
       CHANNELS 3 Yrotation Xrotation Zrotation
       End Site
       {
        OFFSET 0.000000 14.324091 0.057923
       }
      }
     }
     JOINT RightCollar
     {
      OFFSET -2.416021 6.309018 0.000000
      CHANNELS 3 Yrotation Xrotation Zrotation
      JOINT RightShoulder
      {
       OFFSET -12.309578 0.000000 0.000000
       CHANNELS 3 Yrotation Xrotation Zrotation
       JOINT RightElbow
       {
        OFFSET -26.817880 0.000000 0.000000
        CHANNELS 3 Yrotation Xrotation Zrotation
        JOINT RightWrist
        {
         OFFSET -22.046493 0.000000 0.005727
         CHANNELS 3 Yrotation Xrotation Zrotation
         End Site
         {
          OFFSET -16.516461 0.000000 0.000000
         }
        }
       }
      }
     }
     JOINT LeftCollar
     {
      OFFSET 2.416021 6.309018 0.000000
      CHANNELS 3 Yrotation Xrotation Zrotation
      JOINT LeftShoulder
      {
       OFFSET 12.309578 0.000000 0.000000
       CHANNELS 3 Yrotation Xrotation Zrotation
       JOINT LeftElbow
       {
        OFFSET 26.817880 0.000000 0.000000
        CHANNELS 3 Yrotation Xrotation Zrotation
        JOINT LeftWrist
        {
         OFFSET 22.046493 0.000000 0.005727
         CHANNELS 3 Yrotation Xrotation Zrotation
         End Site
         {
          OFFSET 16.516461 0.000000 0.000000
         }
        }
       }
      }
     }
    }
   }
  }
 }
 JOINT RightHip
 {
  OFFSET -10.582077 0.125794 0.012836
  CHANNELS 3 Yrotation Xrotation Zrotation
  JOINT RightKnee
  {
   OFFSET 0.000000 -43.218284 0.001140
   CHANNELS 3 Yrotation Xrotation Zrotation
   JOINT RightAnkle
   {
    OFFSET 0.000000 -37.342314 0.092095
    CHANNELS 3 Yrotation Xrotation Zrotation
    JOINT RightToe
    {
     OFFSET 0.000000 -11.963287 17.799678
     CHANNELS 3 Yrotation Xrotation Zrotation
     End Site
     {
      OFFSET 0.000000 -1.355498 5.291052
     }
    }
   }
  }
 }
 JOINT LeftHip
 {
  OFFSET 10.582077 0.125794 0.012836
  CHANNELS 3 Yrotation Xrotation Zrotation
  JOINT LeftKnee
  {
   OFFSET 0.000000 -43.218284 0.001140
   CHANNELS 3 Yrotation Xrotation Zrotation
   JOINT LeftAnkle
   {
    OFFSET 0.000000 -37.342314 0.092095
    CHANNELS 3 Yrotation Xrotation Zrotation
    JOINT LeftToe
    {
     OFFSET 0.000000 -11.963287 17.799678
     CHANNELS 3 Yrotation Xrotation Zrotation
     End Site
     {
      OFFSET 0.000000 -1.355498 5.291052
     }
    }
   }
  }
 }
}
MOTION
Frames: 13
Frame Time: 0.016667
-50.581943 79.068135 -58.994928 -145.398406 -72.259203 -22.704463 9.091734 1.434300 -0.506682 3.878885 0.533513 -0.207032 3.878885 0.533513 -0.207032 2.909324 0.398840 -0.158667 9.387611 39.627545 8.775804 16.341121 36.883057 15.220662 -5.630666 9.991568 2.881357 -53.171568 33.069655 72.688644 -40.037032 40.156592 2.236325 -17.762681 0.867008 -14.049636 -19.419438 14.500330 -23.547101 22.501255 3.282018 -57.697953 77.367628 10.183376 -4.676325 25.322456 -4.739731 3.889741 170.862730 60.546776 -177.787899 20.392616 -50.957172 -9.029202 7.768062 -4.617465 9.328205 -0.117865 1.419228 -0.443139 153.048116 46.315606 161.552896 1.967465 -77.534327 -20.112071 4.710137 -4.140367 -8.980342 -1.664405 -8.586479 1.854088
-50.277379 79.131895 -58.536176 -143.876800 -72.371954 -24.248031 8.989456 1.386751 -0.542958 3.855796 0.567849 -0.238180 3.855796 0.567849 -0.238180 2.892045 0.424404 -0.182225 9.547149 39.588225 8.813071 16.615492 36.800046 15.270830 -5.221038 9.811767 3.071878 -52.912961 32.525942 73.643817 -39.690592 39.899403 2.665002 -17.724285 0.893840 -14.035877 -19.381113 14.348214 -23.397226 23.253200 4.406261 -55.956440 79.147202 10.353496 -4.450556 25.683700 -4.781719 4.203727 169.897944 60.505278 -178.313274 20.332639 -51.224935 -9.007756 7.770912 -4.383374 9.284277 -0.197912 1.286466 -0.331746 152.743034 45.769574 161.413586 0.595912 -73.765645 -18.350054 4.507781 -3.688939 -9.263542 -1.779990 -9.622950 1.511393
-50.019722 79.179835 -58.036019 -142.334309 -72.463384 -25.822219 8.833356 1.333522 -0.585489 3.822800 0.587541 -0.267520 3.822800 0.587541 -0.267520 2.867332 0.439003 -0.204323 9.728514 39.559779 8.863372 16.929964 36.735128 15.344996 -4.813693 9.758582 3.215818 -52.294090 31.861303 74.837881 -39.462099 39.539497 3.270743 -17.739540 0.905996 -14.043627 -19.265323 14.118728 -23.238550 24.114751 5.861168 -54.122800 80.828827 10.501492 -4.140016 25.965758 -4.915557 4.521439 168.757473 60.468424 -179.012970 20.385967 -51.517358 -9.160880 7.760416 -4.164889 9.211826 -0.288415 1.213652 -0.194744 152.186118 45.257816 160.965249 0.061306 -69.891537 -17.312050 3.856116 -3.330051 -9.550970 -1.795665 -10.461339 1.061894
-49.791275 79.212977 -57.498243 -141.002303 -72.523728 -27.232834 8.679035 1.273827 -0.586672 3.793405 0.596805 -0.293954 3.793405 0.596805 -0.293954 2.845316 0.445800 -0.224178 9.915047 39.526403 8.922105 17.252098 36.660318 15.432688 -4.370716 9.722139 3.292330 -51.476802 31.103972 76.154703 -39.292551 39.044433 4.033143 -17.826087 0.890204 -14.050139 -19.114974 13.786589 -23.083518 25.068326 7.575772 -52.244499 82.357709 10.380325 -3.684783 26.256120 -5.071301 4.910984 167.587281 60.467088 -179.785990 20.285516 -51.828237 -9.197167 7.846454 -3.965571 8.997101 -0.333494 1.191946 0.018109 151.483302 44.731170 160.303326 -0.741989 -66.175320 -15.962813 3.167963 -3.088559 -9.819403 -1.727706 -11.080641 0.557935
-49.575064 79.218600 -56.920419 -140.076926 -72.543958 -28.262441 8.516625 1.175530 -0.586542 3.755624 0.583340 -0.328885 3.755624 0.583340 -0.328885 2.817009 0.435503 -0.250258 10.116880 39.498891 8.967060 17.603273 36.596543 15.496125 -3.779936 9.702711 3.359871 -50.556210 30.260180 77.497217 -39.148751 38.318530 4.900964 -17.910680 0.871267 -14.056329 -18.886645 13.562703 -22.860757 26.073207 9.436757 -50.428816 83.725370 10.161139 -3.196279 26.503893 -5.210242 5.318248 166.609505 60.481056 179.546918 20.105412 -52.293922 -9.167763 8.009499 -3.674779 8.708110 -0.341245 1.183355 0.269342 150.821233 44.307336 159.593526 -2.286498 -62.741449 -13.895783 2.878237 -2.922239 -10.045879 -1.627516 -11.485410 0.057410
-49.389410 79.190279 -56.306116 -139.635017 -72.532844 -28.757559 8.385033 1.093065 -0.654092 3.727091 0.564721 -0.368602 3.727091 0.564721 -0.368602 2.795638 0.421312 -0.279906 10.287802 39.446817 8.981920 17.896360 36.491376 15.502555 -3.171641 9.612595 3.403580 -49.484191 29.313959 78.866689 -39.027994 37.355075 5.851392 -17.937661 0.836420 -14.046591 -18.635223 13.256420 -22.606347 27.180777 11.483564 -48.639906 84.932751 10.090969 -2.784860 26.714125 -5.395244 5.635206 166.121036 60.512492 179.225229 20.109844 -52.913007 -9.227119 8.223069 -3.332898 8.459997 -0.328783 1.199334 0.483009 150.404327 44.091818 159.062259 -4.374970 -59.602970 -11.376605 2.956114 -2.784228 -10.227138 -1.516156 -11.702469 -0.347930
-49.220922 79.136002 -55.655110 -139.594232 -72.437124 -28.868230 8.267264 0.970886 -0.720682 3.713175 0.524379 -0.406512 3.713175 0.524379 -0.406512 2.785212 0.390831 -0.308081 10.424024 39.384944 8.984664 18.126499 36.370901 15.487136 -2.760964 9.651716 3.384165 -48.082203 28.162965 80.337942 -38.931287 36.239270 6.858602 -17.924478 0.819908 -14.008450 -18.445604 12.890818 -22.376612 28.503267 13.629787 -46.859288 85.959335 10.145375 -2.376978 26.918164 -5.557824 5.883540 165.945279 60.655167 179.066323 20.473605 -53.599775 -9.493984 8.221774 -2.983513 8.327631 -0.355217 1.257388 0.601230 150.129528 44.069425 158.615327 -6.535647 -56.761895 -8.913141 3.325856 -2.629625 -10.330820 -1.419978 -11.736955 -0.654231
-49.082191 79.045245 -54.971368 -139.772482 -72.166754 -28.753505 8.083103 0.694933 -0.790472 3.708007 0.441389 -0.437359 3.708007 0.441389 -0.437359 2.781309 0.328402 -0.330710 10.541707 39.365302 8.985660 18.331979 36.329239 15.478365 -2.554011 9.921650 3.279916 -46.425263 26.815701 81.813064 -38.803993 35.078647 7.920604 -17.907135 0.842588 -13.912972 -18.287149 12.734100 -22.215151 29.918906 15.671196 -45.135821 86.849562 10.232547 -1.924359 27.066669 -5.689158 6.114509 165.744704 60.961149 178.817320 20.934200 -54.375238 -9.785190 8.137606 -2.595483 8.250785 -0.401471 1.332802 0.651469 150.036375 44.198679 158.362770 -8.271219 -54.376397 -6.958262 3.859306 -2.381881 -10.285643 -1.352307 -11.595523 -0.892908
-48.950222 78.900432 -54.255797 -139.948526 -71.623052 -28.657744 7.776900 0.192508 -0.830353 3.722006 0.335662 -0.461904 3.722006 0.335662 -0.461904 2.791752 0.248945 -0.348486 10.623645 39.382516 8.978978 18.481531 36.357680 15.465716 -2.515575 10.339140 3.126032 -44.740910 25.317732 83.147059 -38.611169 33.973584 9.020633 -17.881638 0.887409 -13.790843 -18.166588 12.655887 -22.133489 31.385526 17.598776 -43.406907 87.617434 10.240062 -1.352239 27.131439 -5.857594 6.330891 165.144142 61.469774 178.253954 21.139318 -55.272900 -9.899589 8.089220 -2.123319 8.142795 -0.435610 1.401330 0.709389 150.083617 44.344727 158.290848 -9.197835 -52.670621 -5.782809 4.290122 -2.059393 -10.073745 -1.377550 -11.203225 -1.078296
-48.852753 78.751577 -53.517720 -140.165544 -71.081255 -28.451043 7.528528 -0.305305 -0.898203 3.750508 0.210555 -0.489187 3.750508 0.210555 -0.489187 2.813049 0.154921 -0.368198 10.680897 39.435614 8.975407 18.594030 36.453029 15.467637 -2.530932 10.789081 3.024281 -43.229124 23.737458 84.210641 -38.364303 32.946397 10.141028 -17.831910 0.929723 -13.683726 -18.088033 12.596591 -22.111941 32.870848 19.422517 -41.653080 88.289297 10.134082 -0.679345 27.153280 -6.020548 6.523106 164.280701 62.009281 177.437174 21.045435 -56.217299 -9.893124 8.088197 -1.542126 8.023131 -0.464444 1.422196 0.759770 150.402661 44.466429 158.479213 -9.257152 -51.481000 -5.475086 4.381199 -1.660472 -9.787506 -1.447431 -10.601590 -1.124012
-48.783612 78.665700 -52.737663 -140.698469 -70.948503 -27.959021 7.671881 -0.505697 -0.870803 3.800213 0.082159 -0.511671 3.800213 0.082159 -0.511671 2.850230 0.058441 -0.384281 10.697450 39.505337 8.977694 18.637094 36.580319 15.485787 -2.638055 11.215815 2.979490 -41.836889 22.057373 85.083917 -38.187405 31.924391 11.283863 -17.697710 0.957694 -13.630620 -18.084616 12.745990 -22.094968 34.118398 21.029335 -40.072222 88.942917 10.024394 -0.038041 27.123046 -6.127599 6.694889 163.427147 62.306760 176.369868 21.078334 -57.154844 -10.157123 7.909003 -0.796555 8.000757 -0.549360 1.378506 0.745653 151.151978 44.404172 158.833304 -8.722147 -50.620972 -5.829903 4.177852 -1.002952 -9.433002 -1.554162 -9.997248 -1.046409
-48.766024 78.602004 -51.889544 -141.169427 -71.001184 -27.396589 7.958157 -0.518515 -0.946210 3.834002 -0.033294 -0.542306 3.834002 -0.033294 -0.542306 2.875475 -0.028374 -0.406540 10.745296 39.565345 8.988097 18.733551 36.687678 15.514734 -2.674198 11.577715 3.056489 -40.377027 20.242835 85.882296 -38.163155 30.806849 12.586063 -17.452768 1.010548 -13.646000 -18.022693 12.897985 -22.012195 35.202677 22.514804 -38.597345 89.639726 10.059652 0.474111 27.094719 -6.178516 6.848718 162.880829 62.501366 175.573703 21.339393 -58.077292 -10.676224 7.510668 -0.005830 7.997419 -0.565844 1.352115 0.749261 152.227146 44.424913 159.490904 -7.962747 -50.135938 -6.450086 3.781981 -0.138728 -9.094841 -1.507449 -9.306162 -0.819926
-48.744760 78.498966 -50.970807 -141.343735 -70.903564 -27.079835 8.159260 -0.572673 -1.036683 3.848989 -0.120663 -0.573763 3.848989 -0.120663 -0.573763 2.886630 -0.094115 -0.429582 10.822415 39.584682 8.997273 18.874168 36.719034 15.531283 -2.617828 11.792889 3.188918 -38.768601 18.284363 86.561128 -38.326763 29.647797 14.292224 -17.091926 1.054493 -13.782914 -17.886863 12.842926 -21.897648 36.221204 23.932718 -37.164359 90.375804 10.253499 0.875018 27.073024 -6.187751 7.019820 162.312167 62.771767 174.904186 21.641782 -59.058179 -11.199645 7.019521 0.763891 7.909913 -0.480837 1.390331 0.825643 153.191640 44.631986 160.181073 -7.424529 -50.131807 -6.930421 3.560278 0.748218 -8.685126 -1.321975 -8.367343 -0.617061
